<mxfile host="app.diagrams.net" modified="2021-09-30T07:29:35.440Z" agent="5.0 (Windows NT 10.0; Win64; x64) AppleWebKit/537.36 (KHTML, like Gecko) Chrome/94.0.4606.61 Safari/537.36" etag="ijU1kzqSShfFxxK2nUFi" version="15.3.8" type="github" pages="3">
  <diagram id="au9_FhdH9VEP2RhY-4M1" name="第 1 页">
    <mxGraphModel dx="1422" dy="762" grid="1" gridSize="10" guides="1" tooltips="1" connect="1" arrows="1" fold="1" page="1" pageScale="1" pageWidth="827" pageHeight="1169" math="0" shadow="0">
      <root>
        <mxCell id="-IPlQDV9A1I3ypFmDuER-0" />
        <mxCell id="-IPlQDV9A1I3ypFmDuER-1" parent="-IPlQDV9A1I3ypFmDuER-0" />
        <mxCell id="Ht_e0mGg-hgPafh-tnal-0" value="" style="ellipse;whiteSpace=wrap;html=1;aspect=fixed;" vertex="1" parent="-IPlQDV9A1I3ypFmDuER-1">
          <mxGeometry x="180" y="300" width="80" height="80" as="geometry" />
        </mxCell>
        <mxCell id="Ht_e0mGg-hgPafh-tnal-1" value="" style="ellipse;whiteSpace=wrap;html=1;aspect=fixed;" vertex="1" parent="-IPlQDV9A1I3ypFmDuER-1">
          <mxGeometry x="520" y="260" width="80" height="80" as="geometry" />
        </mxCell>
        <mxCell id="Ht_e0mGg-hgPafh-tnal-2" value="" style="ellipse;whiteSpace=wrap;html=1;aspect=fixed;" vertex="1" parent="-IPlQDV9A1I3ypFmDuER-1">
          <mxGeometry x="520" y="260" width="80" height="80" as="geometry" />
        </mxCell>
      </root>
    </mxGraphModel>
  </diagram>
  <diagram id="guycHiUlOyzkqBTjEEGw" name="第 2 页">
    <mxGraphModel dx="1422" dy="762" grid="1" gridSize="10" guides="1" tooltips="1" connect="1" arrows="1" fold="1" page="1" pageScale="1" pageWidth="827" pageHeight="1169" math="0" shadow="0">
      <root>
        <mxCell id="8Anq4Denzk1joNqYEV0G-0" />
        <mxCell id="8Anq4Denzk1joNqYEV0G-1" parent="8Anq4Denzk1joNqYEV0G-0" />
        <mxCell id="8Anq4Denzk1joNqYEV0G-2" value="" style="shape=dataStorage;whiteSpace=wrap;html=1;fixedSize=1;" vertex="1" parent="8Anq4Denzk1joNqYEV0G-1">
          <mxGeometry x="90" y="480" width="100" height="80" as="geometry" />
        </mxCell>
        <mxCell id="8Anq4Denzk1joNqYEV0G-3" value="" style="ellipse;whiteSpace=wrap;html=1;aspect=fixed;" vertex="1" parent="8Anq4Denzk1joNqYEV0G-1">
          <mxGeometry x="370" y="350" width="80" height="80" as="geometry" />
        </mxCell>
        <mxCell id="8Anq4Denzk1joNqYEV0G-4" value="" style="ellipse;whiteSpace=wrap;html=1;aspect=fixed;" vertex="1" parent="8Anq4Denzk1joNqYEV0G-1">
          <mxGeometry x="370" y="350" width="80" height="80" as="geometry" />
        </mxCell>
      </root>
    </mxGraphModel>
  </diagram>
  <diagram id="Cr89_ItpHjIhTY_prRsM" name="第 3 页">
    <mxGraphModel dx="1422" dy="762" grid="1" gridSize="10" guides="1" tooltips="1" connect="1" arrows="1" fold="1" page="1" pageScale="1" pageWidth="827" pageHeight="1169" math="0" shadow="0">
      <root>
        <mxCell id="pqxSdnT53E09C6kF5yEW-0" />
        <mxCell id="pqxSdnT53E09C6kF5yEW-1" parent="pqxSdnT53E09C6kF5yEW-0" />
      </root>
    </mxGraphModel>
  </diagram>
</mxfile>
